<?xml version="1.0" encoding="UTF-8"?> <svg xmlns="http://www.w3.org/2000/svg" width="40" height="40" viewBox="0 0 40 40" fill="none"><path d="M33.1458 35.9667C29.6208 35.9667 26.1208 35.1084 22.6458 33.3834C19.1708 31.6584 16.0458 29.4167 13.2708 26.6501C10.4958 23.8834 8.24583 20.7584 6.52083 17.2751C4.79583 13.7917 3.9375 10.2917 3.9375 6.80005C3.9375 5.99172 4.2125 5.31672 4.77083 4.75838C5.32917 4.20005 6.00417 3.92505 6.8125 3.92505H12.6458C13.5042 3.92505 14.2125 4.15005 14.7458 4.59172C15.2875 5.03338 15.6542 5.69172 15.8542 6.55005L16.9792 11.1334C17.1208 11.8834 17.1042 12.5334 16.9375 13.0667C16.7708 13.6084 16.4625 14.075 16.0208 14.4667L11.6458 18.4251C13.0375 20.6167 14.5458 22.5167 16.1625 24.1084C17.7875 25.7084 19.5958 27.0584 21.6042 28.1751L25.7708 23.9667C26.2708 23.4667 26.8042 23.125 27.3708 22.9417C27.9375 22.7584 28.5708 22.7584 29.2708 22.925L33.3542 23.925C34.2125 24.15 34.8792 24.5334 35.3375 25.0917C35.7958 25.6501 36.0292 26.3584 36.0292 27.2167V33.0501C36.0292 33.8834 35.7542 34.5751 35.1958 35.1334C34.6375 35.6917 33.9625 35.9667 33.1542 35.9667H33.1458Z" fill="#CCACE2"></path><path d="M22.6461 33.3831C26.1211 35.1081 29.6211 35.9664 33.1461 35.9664C33.9544 35.9664 34.6294 35.6914 35.1878 35.1331C35.7461 34.5747 36.0211 33.8831 36.0211 33.0497V28.6331C32.2044 27.4497 28.1794 26.5247 24.0378 25.7164L21.6044 28.1664C19.7211 27.1164 18.0044 25.8497 16.4544 24.3664C14.4378 24.0331 12.4044 23.7081 10.3711 23.3831C11.2628 24.5164 12.2294 25.6081 13.2711 26.6414C16.0461 29.4081 19.1711 31.6497 22.6461 33.3664V33.3831Z" fill="#B88AD6"></path><path d="M37.7089 9.19588C34.5878 9.19588 32.0576 6.44235 32.0576 3.0459C32.0576 6.44235 29.5273 9.19588 26.4062 9.19588C29.5273 9.19588 32.0576 11.9494 32.0576 15.3459C32.0576 11.9494 34.5878 9.19588 37.7089 9.19588Z" fill="#9A59C5"></path><path d="M28.5163 15.5756C26.939 15.5756 25.6605 14.2039 25.6605 12.5117C25.6605 14.2039 24.3819 15.5756 22.8047 15.5756C24.3819 15.5756 25.6605 16.9474 25.6605 18.6395C25.6605 16.9474 26.939 15.5756 28.5163 15.5756Z" fill="#9A59C5"></path><path d="M28.6129 2.50651C27.6649 2.50651 26.8963 1.68195 26.8963 0.664795C26.8963 1.68195 26.1277 2.50651 25.1797 2.50651C26.1277 2.50651 26.8963 3.33107 26.8963 4.34822C26.8963 3.33107 27.6649 2.50651 28.6129 2.50651Z" fill="#9A59C5"></path></svg>
